<svg width="18" height="19" viewBox="0 0 18 19" fill="none" xmlns="http://www.w3.org/2000/svg">
<path d="M3.54 2.04877C3.6 2.93877 3.75 3.80877 3.99 4.63877L2.79 5.83877C2.38 4.63877 2.12 3.36877 2.03 2.04877H3.54ZM13.4 14.0688C14.25 14.3088 15.12 14.4588 16 14.5188V16.0088C14.68 15.9188 13.41 15.6588 12.2 15.2588L13.4 14.0688ZM4.5 0.0487671H1C0.45 0.0487671 0 0.498767 0 1.04877C0 10.4388 7.61 18.0488 17 18.0488C17.55 18.0488 18 17.5988 18 17.0488V13.5588C18 13.0088 17.55 12.5588 17 12.5588C15.76 12.5588 14.55 12.3588 13.43 11.9888C13.33 11.9488 13.22 11.9388 13.12 11.9388C12.86 11.9388 12.61 12.0388 12.41 12.2288L10.21 14.4288C7.38 12.9788 5.06 10.6688 3.62 7.83877L5.82 5.63877C6.1 5.35877 6.18 4.96877 6.07 4.61877C5.7 3.49877 5.5 2.29877 5.5 1.04877C5.5 0.498767 5.05 0.0487671 4.5 0.0487671Z" fill="#7A7C7D" fill-opacity="0.8"/>
</svg>
